HIERARCHY
ROOT Hips
{
	OFFSET 52.415401 14.501390 59.311802
	CHANNELS 6 Xposition Yposition Zposition Xrotation Yrotation Zrotation
	JOINT spine
	{
		OFFSET 0.000000 -0.429886 7.475597
		CHANNELS 3 Xrotation Yrotation Zrotation
		JOINT spine1
		{
			OFFSET 0.000000 -0.000002 9.923012
			CHANNELS 3 Xrotation Yrotation Zrotation
			JOINT spine2
			{
				OFFSET 0.000000 -0.000002 9.508041
				CHANNELS 3 Xrotation Yrotation Zrotation
				JOINT Neck
				{
					OFFSET 0.000000 -1.163844 24.411102
					CHANNELS 3 Xrotation Yrotation Zrotation
					JOINT Head
					{
						OFFSET 0.000000 -0.000001 7.375229
						CHANNELS 3 Xrotation Yrotation Zrotation
						End Site
						{
							OFFSET 0.000000 5.887407 17.852196
						}
					}
				}
				JOINT RightShoulder
				{
					OFFSET -4.003559 0.557467 10.267899
					CHANNELS 3 Xrotation Yrotation Zrotation
					JOINT RightArm
					{
						OFFSET 0.000000 -0.000003 13.467300
						CHANNELS 3 Xrotation Yrotation Zrotation
						JOINT RightArmRoll
						{
							OFFSET 0.000000 -0.000001 6.798569
							CHANNELS 3 Xrotation Yrotation Zrotation
							JOINT RightForeArm
							{
								OFFSET 0.000000 -0.000003 19.801796
								CHANNELS 3 Xrotation Yrotation Zrotation
								JOINT RightForeArmRoll
								{
									OFFSET 0.000000 -0.000002 7.629044
									CHANNELS 3 Xrotation Yrotation Zrotation
									JOINT RightHand
									{
										OFFSET 0.000000 -0.000002 15.309799
										CHANNELS 3 Xrotation Yrotation Zrotation
										End Site
										{
											OFFSET 0.000000 0.000000 0.100006
										}
									}
								}
							}
						}
					}
				}
				JOINT LeftShoulder
				{
					OFFSET 4.003559 0.557467 10.267899
					CHANNELS 3 Xrotation Yrotation Zrotation
					JOINT LeftArm
					{
						OFFSET 0.000000 -0.000003 13.467300
						CHANNELS 3 Xrotation Yrotation Zrotation
						JOINT LeftArmRoll
						{
							OFFSET 0.000000 -0.000001 6.798569
							CHANNELS 3 Xrotation Yrotation Zrotation
							JOINT LeftForeArm
							{
								OFFSET 0.000000 -0.000003 19.801796
								CHANNELS 3 Xrotation Yrotation Zrotation
								JOINT LeftForeArmRoll
								{
									OFFSET 0.000000 -0.000002 7.629044
									CHANNELS 3 Xrotation Yrotation Zrotation
									JOINT LeftHand
									{
										OFFSET 0.000000 -0.000002 15.309799
										CHANNELS 3 Xrotation Yrotation Zrotation
										End Site
										{
											OFFSET 0.000000 0.000000 0.100006
										}
									}
								}
							}
						}
					}
				}
			}
		}
	}
	JOINT RightUpLeg
	{
		OFFSET -6.626091 1.019270 -1.215050
		CHANNELS 3 Xrotation Yrotation Zrotation
		JOINT RightUpLegRoll
		{
			OFFSET 0.000000 -0.000003 17.951694
			CHANNELS 3 Xrotation Yrotation Zrotation
			JOINT RightLeg
			{
				OFFSET 0.000000 0.000004 -22.230396
				CHANNELS 3 Xrotation Yrotation Zrotation
				JOINT RightLegRoll
				{
					OFFSET 0.000000 -0.000004 22.303196
					CHANNELS 3 Xrotation Yrotation Zrotation
					JOINT RightFoot
					{
						OFFSET 0.000000 -0.000003 18.563599
						CHANNELS 3 Xrotation Yrotation Zrotation
						JOINT RightToeBase
						{
							OFFSET 0.000000 -0.000003 15.518303
							CHANNELS 3 Xrotation Yrotation Zrotation
							End Site
							{
								OFFSET 0.006577 0.866261 7.515381
							}
						}
					}
				}
			}
		}
	}
	JOINT LeftUpLeg
	{
		OFFSET 6.626091 1.019270 -1.215050
		CHANNELS 3 Xrotation Yrotation Zrotation
		JOINT LeftUpLegRoll
		{
			OFFSET 0.000000 -0.000003 17.951794
			CHANNELS 3 Xrotation Yrotation Zrotation
			JOINT LeftLeg
			{
				OFFSET 0.000000 -0.000004 22.230301
				CHANNELS 3 Xrotation Yrotation Zrotation
				JOINT LeftLegRoll
				{
					OFFSET 0.000000 -0.000004 22.509300
					CHANNELS 3 Xrotation Yrotation Zrotation
					JOINT LeftFoot
					{
						OFFSET 0.000000 -0.000003 18.357498
						CHANNELS 3 Xrotation Yrotation Zrotation
						JOINT LeftToeBase
						{
							OFFSET 0.000000 -0.000002 15.518295
							CHANNELS 3 Xrotation Yrotation Zrotation
							End Site
							{
								OFFSET -0.029476 0.866261 7.515396
							}
						}
					}
				}
			}
		}
	}
}
MOTION
Frames: 6
Frame Time: 0.041667
56.779697 -20.062609 93.950699 -0.479303 1.117631 1.697199 -1.242129 0.067959 -0.267777 1.518914 0.139158 -0.525404 3.163958 0.132743 -0.527035 8.771764 6.780723 -0.823263 0.487333 -8.415921 -0.477814 -10.105335 -70.020559 -12.545198 -55.652832 -112.697602 -34.450972 0.000003 -0.000022 0.000003 0.038934 -4.940310 -1.196581 0.000004 0.000000 -3.036631 -5.000186 -7.999430 0.000078 -12.143944 70.013885 14.812109 -38.608023 105.638656 12.475205 -0.000011 -0.000003 0.000001 -0.003612 -0.598045 0.883145 0.000002 -0.000013 3.038508 -5.000155 8.000118 -0.000018 -1.688503 175.767829 -3.591334 -179.999991 0.000005 -0.911006 174.417514 -2.000473 -0.419481 -0.000002 -0.000000 0.029441 68.427881 6.851588 2.253788 25.456882 -7.364143 -0.000011 -6.094112 177.058680 1.581430 -0.000005 -0.000005 -0.965844 -11.228794 3.363248 0.653799 -0.000002 -0.000000 -0.167389 70.585067 -6.790904 -2.264823 25.456924 7.346719 0.000001 
56.765198 -20.007807 93.945618 -0.430863 1.133908 1.729846 -1.245260 0.069783 -0.271071 1.512675 0.142853 -0.532637 3.157719 0.136360 -0.534311 8.769819 6.733907 -0.839151 0.477608 -8.393824 -0.493306 -10.107510 -70.073165 -12.550426 -55.846116 -112.725299 -34.663254 0.000002 -0.000023 0.000001 0.038931 -4.951009 -1.197253 0.000005 -0.000001 -3.036622 -5.000188 -7.999430 0.000080 -12.127768 69.998224 14.793442 -38.970129 105.711876 12.838675 -0.000010 -0.000003 0.000001 -0.003611 -0.625804 0.883272 0.000002 -0.000013 3.038507 -5.000154 8.000118 -0.000018 -1.751459 175.752966 -3.604642 -179.999991 0.000005 -0.909995 174.423033 -2.001484 -0.420382 -0.000002 -0.000000 0.029440 68.431454 6.851596 2.253668 25.456887 -7.364143 -0.000011 -6.169463 177.044200 1.583486 -0.000005 -0.000004 -0.964636 -11.233171 3.360745 0.653902 -0.000002 -0.000000 -0.167389 70.587198 -6.790931 -2.264798 25.456916 7.346719 0.000001 
56.773098 -19.988207 93.945801 -0.382830 1.149794 1.763172 -1.248409 0.071702 -0.274485 1.506365 0.146742 -0.540133 3.151420 0.140167 -0.541852 8.769353 6.687092 -0.855289 0.466873 -8.371477 -0.509033 -10.109411 -70.126201 -12.555349 -56.038611 -112.753084 -34.875096 0.000005 -0.000023 0.000001 0.038933 -4.962069 -1.197906 0.000005 -0.000000 -3.036592 -5.000186 -7.999430 0.000078 -12.110427 69.983129 14.773503 -39.328619 105.785608 13.198740 -0.000010 -0.000003 0.000001 -0.003611 -0.652893 0.883428 0.000002 -0.000013 3.038508 -5.000155 8.000118 -0.000021 -1.813599 175.740125 -3.617599 -179.999991 0.000005 -0.908997 174.428811 -2.002510 -0.420279 -0.000002 0.000000 0.029441 68.435149 6.851577 2.253634 25.456880 -7.364143 -0.000011 -6.243974 177.029692 1.586297 -0.000005 -0.000004 -0.963441 -11.237045 3.357816 0.653935 -0.000002 -0.000000 -0.167389 70.589425 -6.790895 -2.264755 25.456918 7.346718 0.000001 
56.771595 -19.952612 93.945297 -0.335087 1.165430 1.796965 -1.251599 0.073687 -0.277981 1.500015 0.150766 -0.547812 3.145060 0.144107 -0.549579 8.769920 6.640261 -0.871598 0.455426 -8.348960 -0.524922 -10.111126 -70.179545 -12.560066 -56.232111 -112.780343 -35.088338 0.000003 -0.000023 0.000001 0.038935 -4.973380 -1.198546 0.000005 -0.000001 -3.036563 -5.000188 -7.999430 0.000077 -12.092292 69.968410 14.752672 -39.685814 105.859101 13.557733 -0.000010 -0.000003 0.000001 -0.003610 -0.679517 0.883602 0.000002 -0.000013 3.038509 -5.000155 8.000118 -0.000022 -1.875183 175.726287 -3.630228 -179.999991 0.000005 -0.907004 174.434740 -2.003522 -0.420168 -0.000002 -0.000000 0.029441 68.438919 6.851565 2.253600 25.456882 -7.364141 -0.000010 -6.317882 177.016196 1.589545 -0.000005 -0.000004 -0.962255 -11.240615 3.354616 0.653929 -0.000002 -0.000000 -0.167389 70.591651 -6.790891 -2.264720 25.456918 7.346718 0.000001 
56.774097 -19.923906 93.939407 -0.287511 1.180945 1.831026 -1.254792 0.075710 -0.281526 1.493636 0.154867 -0.555595 3.138680 0.148124 -0.557412 8.771086 6.593430 -0.888006 0.443578 -8.326343 -0.540900 -10.112670 -70.232998 -12.564604 -56.422991 -112.808326 -35.298933 0.000003 -0.000023 -0.000001 0.038933 -4.984839 -1.199192 0.000003 -0.000001 -3.036523 -5.000187 -7.999430 0.000079 -12.073616 69.953828 14.731260 -40.037623 105.933946 13.911330 -0.000010 -0.000003 0.000001 -0.003608 -0.705871 0.883794 0.000002 -0.000013 3.038511 -5.000154 8.000118 -0.000018 -1.936430 175.713447 -3.642716 -179.999991 0.000005 -0.906006 174.440764 -2.004537 -0.420053 -0.000002 -0.000000 0.029441 68.442717 6.851591 2.253469 25.456885 -7.364142 -0.000012 -6.391452 177.002699 1.593111 -0.000005 -0.000004 -0.961074 -11.243881 3.351243 0.653888 -0.000002 -0.000000 -0.167389 70.593782 -6.790920 -2.264695 25.456923 7.346719 0.000001 
56.775097 -19.875505 93.934097 -0.239975 1.196480 1.865131 -1.257989 0.077743 -0.285083 1.487256 0.158991 -0.563404 3.132301 0.152161 -0.565269 8.772398 6.546606 -0.904437 0.431626 -8.303699 -0.556892 -10.114227 -70.286560 -12.569145 -56.615202 -112.835941 -35.511202 0.000004 -0.000023 0.000002 0.038934 -4.996329 -1.199829 0.000004 -0.000000 -3.036490 -5.000188 -7.999430 0.000075 -12.054901 69.939341 14.709786 -40.388442 106.008614 14.263954 -0.000010 -0.000003 0.000000 -0.003608 -0.732161 0.883982 0.000002 -0.000013 3.038510 -5.000155 8.000118 -0.000022 -1.997590 175.700592 -3.655142 -179.999991 0.000005 -0.904995 174.446802 -2.005549 -0.419939 -0.000002 -0.000001 0.029440 68.446507 6.851615 2.253338 25.456885 -7.364142 -0.000010 -6.464944 176.989230 1.596788 -0.000005 -0.000004 -0.959894 -11.247147 3.347830 0.653844 -0.000002 -0.000000 -0.167389 70.596016 -6.790916 -2.264656 25.456921 7.346719 0.000001 
